# xmcd CD database file
#
# Track frame offsets:
#	150
#	21507
#	24397
#	28595
#	40785
#	47220
#	55367
#	60657
#	71500
#	80877
#
# Disc length: 1243 seconds
#
# Revision: 0
# Processed by: cddbd v1.5.1PL0 Copyright (c) Steve Scherf et al.
# Submitted via: CdAid (MTCDDB.DLL V2003.07.15)
#
DISCID=8804d90a
DTITLE=Roger Miller - Hits You Remember - LIVE
DYEAR=1997
DGENRE=Country
TTITLE0=Me And Bobby McGee
TTITLE1=You Can't Roller Skate In A Buffalo Herd
TTITLE2=Chug-A-Lug
TTITLE3=Dang Me
TTITLE4=Summertime
TTITLE5=England Swings
TTITLE6=Engine, Engine # 9
TTITLE7=Husbands And Wives
TTITLE8=That's When The Loving's Done
TTITLE9=King Of The Road
EXTD=ID3G:   2 YEAR: 1997
EXTT0=
EXTT1=
EXTT2=
EXTT3=
EXTT4=
EXTT5=
EXTT6=
EXTT7=
EXTT8=
EXTT9=
PLAYORDER=
